<svg width="227" height="233" viewBox="0 0 227 233" fill="none" xmlns="http://www.w3.org/2000/svg">
<g filter="url(#filter0_f_70_5617)">
<circle cx="163.5" cy="69.5" r="43.5" fill="url(#paint0_linear_70_5617)"/>
</g>
<circle cx="163.5" cy="69.5" r="43.5" fill="url(#paint1_linear_70_5617)"/>
<g opacity="0.3" filter="url(#filter1_f_70_5617)">
<path d="M163.5 34.0906C179.642 26.2742 202.407 48.364 198.329 61.1082L197.613 60.1524C188.862 48.4866 177.056 39.4671 163.5 34.0906Z" fill="#FFC1A1"/>
</g>
<g style="mix-blend-mode:multiply" opacity="0.3" filter="url(#filter2_f_70_5617)">
<path d="M174.715 101.785C149.736 111.641 122.549 84.623 128.836 61.0039L133.851 68.5261C142.581 81.6223 154.669 92.1335 168.85 98.9616L174.715 101.785Z" fill="#45368D"/>
</g>
<defs>
<filter id="filter0_f_70_5617" x="0" y="-94" width="327" height="327" filterUnits="userSpaceOnUse" color-interpolation-filters="sRGB">
<feFlood flood-opacity="0" result="BackgroundImageFix"/>
<feBlend mode="normal" in="SourceGraphic" in2="BackgroundImageFix" result="shape"/>
<feGaussianBlur stdDeviation="60" result="effect1_foregroundBlur_70_5617"/>
</filter>
<filter id="filter1_f_70_5617" x="129.697" y="-1.34579" width="102.916" height="96.2568" filterUnits="userSpaceOnUse" color-interpolation-filters="sRGB">
<feFlood flood-opacity="0" result="BackgroundImageFix"/>
<feBlend mode="normal" in="SourceGraphic" in2="BackgroundImageFix" result="shape"/>
<feGaussianBlur stdDeviation="16.9014" result="effect1_foregroundBlur_70_5617"/>
</filter>
<filter id="filter2_f_70_5617" x="71.5802" y="4.66587" width="159.473" height="155.541" filterUnits="userSpaceOnUse" color-interpolation-filters="sRGB">
<feFlood flood-opacity="0" result="BackgroundImageFix"/>
<feBlend mode="normal" in="SourceGraphic" in2="BackgroundImageFix" result="shape"/>
<feGaussianBlur stdDeviation="28.169" result="effect1_foregroundBlur_70_5617"/>
</filter>
<linearGradient id="paint0_linear_70_5617" x1="238.775" y1="40.7832" x2="152.455" y2="129.822" gradientUnits="userSpaceOnUse">
<stop offset="0.118772" stop-color="#FFB590"/>
<stop offset="0.419957" stop-color="#FF7F3E"/>
<stop offset="1" stop-color="#45368D"/>
</linearGradient>
<linearGradient id="paint1_linear_70_5617" x1="238.775" y1="40.7832" x2="152.455" y2="129.822" gradientUnits="userSpaceOnUse">
<stop offset="0.118772" stop-color="#FFB590"/>
<stop offset="0.419957" stop-color="#FF7F3E"/>
<stop offset="1" stop-color="#45368D"/>
</linearGradient>
</defs>
</svg>
