<svg width="290" height="226" viewBox="0 0 290 226" fill="none" xmlns="http://www.w3.org/2000/svg">
<g opacity="0.8">
<g opacity="0.5" filter="url(#filter0_f_70_5631)">
<ellipse cx="213.5" cy="177.5" rx="93.4998" ry="93.5" fill="#B968A4"/>
<ellipse cx="213.5" cy="177.5" rx="93.4998" ry="93.5" fill="url(#paint0_linear_70_5631)"/>
<ellipse cx="213.5" cy="177.5" rx="93.4998" ry="93.5" fill="url(#paint1_linear_70_5631)"/>
</g>
<ellipse cx="213.5" cy="177.5" rx="93.4998" ry="93.5" fill="#B968A4"/>
<ellipse cx="213.5" cy="177.5" rx="93.4998" ry="93.5" fill="url(#paint2_linear_70_5631)"/>
<ellipse cx="213.5" cy="177.5" rx="93.4998" ry="93.5" fill="url(#paint3_linear_70_5631)"/>
<g opacity="0.3" filter="url(#filter1_f_70_5631)">
<path d="M218.613 101.39C253.308 84.5892 302.24 132.07 293.476 159.462L272.044 134.879C265.46 127.327 257.482 121.115 248.548 116.581L218.613 101.39Z" fill="#FFD2BB"/>
</g>
<g style="mix-blend-mode:multiply" opacity="0.4" filter="url(#filter2_f_70_5631)">
<path d="M230.812 259.312C177.122 280.496 118.685 222.424 132.199 171.656L159.807 213.07C167.556 224.692 178.284 234.021 190.87 240.081L230.812 259.312Z" fill="#B968A4"/>
</g>
</g>
<defs>
<filter id="filter0_f_70_5631" x="0.000488281" y="-36" width="427" height="427" filterUnits="userSpaceOnUse" color-interpolation-filters="sRGB">
<feFlood flood-opacity="0" result="BackgroundImageFix"/>
<feBlend mode="normal" in="SourceGraphic" in2="BackgroundImageFix" result="shape"/>
<feGaussianBlur stdDeviation="60" result="effect1_foregroundBlur_70_5631"/>
</filter>
<filter id="filter1_f_70_5631" x="188.613" y="67.8789" width="135.896" height="121.583" filterUnits="userSpaceOnUse" color-interpolation-filters="sRGB">
<feFlood flood-opacity="0" result="BackgroundImageFix"/>
<feBlend mode="normal" in="SourceGraphic" in2="BackgroundImageFix" result="shape"/>
<feGaussianBlur stdDeviation="15" result="effect1_foregroundBlur_70_5631"/>
</filter>
<filter id="filter2_f_70_5631" x="80.2262" y="121.656" width="200.585" height="192.136" filterUnits="userSpaceOnUse" color-interpolation-filters="sRGB">
<feFlood flood-opacity="0" result="BackgroundImageFix"/>
<feBlend mode="normal" in="SourceGraphic" in2="BackgroundImageFix" result="shape"/>
<feGaussianBlur stdDeviation="25" result="effect1_foregroundBlur_70_5631"/>
</filter>
<linearGradient id="paint0_linear_70_5631" x1="123.653" y1="260.773" x2="307" y2="134.768" gradientUnits="userSpaceOnUse">
<stop offset="0.140215" stop-color="#5343A5"/>
<stop offset="0.460927" stop-color="#5343A5" stop-opacity="0.05"/>
<stop offset="0.587747" stop-color="#5343A5" stop-opacity="0"/>
</linearGradient>
<linearGradient id="paint1_linear_70_5631" x1="379.316" y1="51.1289" x2="182.455" y2="231.554" gradientUnits="userSpaceOnUse">
<stop offset="0.300261" stop-color="#FCB8A8"/>
<stop offset="0.833024" stop-color="#FCB8A8" stop-opacity="0.12"/>
<stop offset="1" stop-color="#FCB8A8" stop-opacity="0"/>
</linearGradient>
<linearGradient id="paint2_linear_70_5631" x1="123.652" y1="260.773" x2="307" y2="134.768" gradientUnits="userSpaceOnUse">
<stop offset="0.140215" stop-color="#5343A5"/>
<stop offset="0.460927" stop-color="#5343A5" stop-opacity="0.05"/>
<stop offset="0.587747" stop-color="#5343A5" stop-opacity="0"/>
</linearGradient>
<linearGradient id="paint3_linear_70_5631" x1="379.316" y1="51.1289" x2="182.455" y2="231.554" gradientUnits="userSpaceOnUse">
<stop offset="0.300261" stop-color="#FCB8A8"/>
<stop offset="0.833024" stop-color="#FCB8A8" stop-opacity="0.12"/>
<stop offset="1" stop-color="#FCB8A8" stop-opacity="0"/>
</linearGradient>
</defs>
</svg>
