<svg width="201" height="339" viewBox="0 0 201 339" fill="none" xmlns="http://www.w3.org/2000/svg">
<g filter="url(#filter0_f_70_5651)">
<circle cx="31.5" cy="169.5" r="49.5" fill="url(#paint0_linear_70_5651)"/>
</g>
<circle cx="31.5" cy="169.5" r="49.5" fill="url(#paint1_linear_70_5651)"/>
<g opacity="0.3" filter="url(#filter1_f_70_5651)">
<path d="M31.4999 129.206C49.868 120.312 75.7734 145.449 71.1336 159.951L67.527 155.304C59.494 144.954 48.9834 136.795 36.9654 131.579L31.4999 129.206Z" fill="#F9F0FF"/>
</g>
<g style="mix-blend-mode:multiply" opacity="0.8" filter="url(#filter2_f_70_5651)">
<path d="M44.2616 206.238C15.8379 217.453 -15.0996 186.709 -7.94527 159.832L1.10116 173.402C8.84971 185.025 19.5774 194.353 32.1634 200.413L44.2616 206.238Z" fill="#E8C8FE"/>
</g>
<defs>
<filter id="filter0_f_70_5651" x="-138" y="0" width="339" height="339" filterUnits="userSpaceOnUse" color-interpolation-filters="sRGB">
<feFlood flood-opacity="0" result="BackgroundImageFix"/>
<feBlend mode="normal" in="SourceGraphic" in2="BackgroundImageFix" result="shape"/>
<feGaussianBlur stdDeviation="60" result="effect1_foregroundBlur_70_5651"/>
</filter>
<filter id="filter1_f_70_5651" x="1.5" y="97.3477" width="100.18" height="92.6029" filterUnits="userSpaceOnUse" color-interpolation-filters="sRGB">
<feFlood flood-opacity="0" result="BackgroundImageFix"/>
<feBlend mode="normal" in="SourceGraphic" in2="BackgroundImageFix" result="shape"/>
<feGaussianBlur stdDeviation="15" result="effect1_foregroundBlur_70_5651"/>
</filter>
<filter id="filter2_f_70_5651" x="-58.9895" y="109.832" width="153.251" height="148.778" filterUnits="userSpaceOnUse" color-interpolation-filters="sRGB">
<feFlood flood-opacity="0" result="BackgroundImageFix"/>
<feBlend mode="normal" in="SourceGraphic" in2="BackgroundImageFix" result="shape"/>
<feGaussianBlur stdDeviation="25" result="effect1_foregroundBlur_70_5651"/>
</filter>
<linearGradient id="paint0_linear_70_5651" x1="92.4082" y1="154.418" x2="12.9375" y2="245.684" gradientUnits="userSpaceOnUse">
<stop offset="0.0621617" stop-color="#E8C8FE"/>
<stop offset="1" stop-color="#4C63D7"/>
</linearGradient>
<linearGradient id="paint1_linear_70_5651" x1="92.4082" y1="154.418" x2="12.9375" y2="245.684" gradientUnits="userSpaceOnUse">
<stop offset="0.0621617" stop-color="#E8C8FE"/>
<stop offset="1" stop-color="#4C63D7"/>
</linearGradient>
</defs>
</svg>
