<svg width="60" height="60" viewBox="0 0 60 60" fill="none" xmlns="http://www.w3.org/2000/svg">
<g style="mix-blend-mode:luminosity">
<path d="M9.3327 43.6374C7.41669 43.6491 6 45.2558 6 47.2662C6 49.3971 7.54752 50.8835 9.35598 50.8835C11.1646 50.8835 12.5494 49.2114 12.5494 47.2662C12.5494 45.2979 11.1413 43.6264 9.3327 43.6374ZM9.64044 49.5017C8.50845 49.5017 7.59085 48.5035 7.59085 47.2721C7.59085 45.9134 8.50845 45.0425 9.64044 45.0425C10.8075 45.0425 11.69 46.0407 11.69 47.2721C11.69 48.5035 10.7724 49.5017 9.64044 49.5017Z" fill="black"/>
<path d="M11.562 43.8V46.0576H12.073V48.4632H11.562V50.3319C11.562 50.566 11.7571 50.7558 11.9975 50.7558H13.1066V43.8H11.562ZM25.6473 43.6374C23.7312 43.6491 22.3146 45.2558 22.3146 47.2662C22.3146 49.3971 23.8621 50.8835 25.6705 50.8835C27.4791 50.8835 28.8639 49.2114 28.8639 47.2662C28.8639 45.2979 27.4557 43.6264 25.6473 43.6374ZM25.9549 49.5017C24.8229 49.5017 23.9053 48.5035 23.9053 47.2721C23.9053 45.9134 24.8229 45.0425 25.9549 45.0425C27.122 45.0425 28.0045 46.0407 28.0045 47.2721C28.0045 48.5035 27.0869 49.5017 25.9549 49.5017Z" fill="black"/>
<path d="M27.8763 40.2855V46.0576H28.3873V48.4631H27.8763V50.3319C27.8763 50.566 28.0713 50.7558 28.3117 50.7558H29.4208V40.2854L27.8763 40.2855ZM50.2054 43.6373C48.2892 43.649 46.8725 45.2558 46.8725 47.2662C46.8725 49.3971 48.4201 50.8835 50.2284 50.8835C52.037 50.8835 53.4219 49.2113 53.4219 47.2662C53.4219 45.2979 52.0139 43.6264 50.2054 43.6373ZM50.513 49.5016C49.381 49.5016 48.4634 48.5035 48.4634 47.272C48.4634 45.9134 49.381 45.0424 50.513 45.0424C51.6799 45.0424 52.5626 46.0406 52.5626 47.272C52.5626 48.5035 51.6451 49.5016 50.513 49.5016Z" fill="black"/>
<path d="M52.4349 40.2855V46.0576H52.9459V48.4631H52.4349V50.3319C52.4349 50.566 52.63 50.7558 52.8703 50.7558H53.9794V40.2854L52.4349 40.2855ZM44.1113 48.4632V50.332C44.1113 50.5661 44.3064 50.7559 44.5467 50.7559H45.6558V43.7986H44.1113V46.0577V48.4632ZM14.8257 48.4632V50.332C14.8257 50.5661 15.0209 50.7559 15.2612 50.7559H16.3703V43.7986H14.8257V46.0577V48.4632Z" fill="black"/>
<path d="M18.4808 43.6356C18.4808 43.6356 16.883 43.5738 16.2805 44.8447V47.1772L16.366 47.4261C16.3309 44.9782 18.1095 45.0404 18.1095 45.0404C19.1324 45.0404 19.4379 45.8395 19.5277 46.2579C19.5277 46.2579 19.5669 46.4255 19.5643 46.752V50.3318C19.5643 50.5659 19.7595 50.7557 19.9998 50.7557H21.1088V46.2621C21.1088 46.2621 21.1349 43.6356 18.4808 43.6356ZM31.14 48.4631V50.3318C31.14 50.5659 31.3352 50.7557 31.5755 50.7557H32.6846V43.7984H31.14V46.0575V48.4631Z" fill="black"/>
<path d="M44.8644 42.2952C45.4386 42.2952 45.9041 41.8313 45.9041 41.2591C45.9041 40.6869 45.4386 40.223 44.8644 40.223C44.2901 40.223 43.8246 40.6869 43.8246 41.2591C43.8246 41.8313 44.2901 42.2952 44.8644 42.2952Z" fill="black"/>
<path d="M39.2304 43.6182C37.2031 43.6182 35.5859 45.222 35.5859 47.2327C35.5859 49.2435 37.0817 50.8998 39.2304 50.8998C41.379 50.8998 42.901 49.2698 42.901 47.259C42.901 45.2482 41.2576 43.6182 39.2304 43.6182ZM39.2379 49.4524C38.0884 49.4524 37.1563 48.4738 37.1563 47.2665C37.1563 46.0592 38.0884 45.0806 39.2379 45.0806C40.3874 45.0806 41.3195 46.0592 41.3195 47.2665C41.3195 48.4738 40.3873 49.4524 39.2379 49.4524ZM32.5904 45.2596C33.1425 43.2899 35.1121 43.7525 35.1121 43.7525V45.3603C35.1121 45.3603 32.7974 44.5779 32.6855 47.3932L32.5904 45.2596Z" fill="black"/>
<path d="M20.4698 17.5857C20.6673 17.9284 20.5191 18.3839 20.1391 18.6029C19.7586 18.8217 19.2905 18.7213 19.0929 18.3785L14.3873 10.2062C14.1901 9.8634 14.2563 9.31095 14.6366 9.09203C15.0169 8.8731 15.5669 9.07054 15.7643 9.41337L20.4698 17.5857ZM39.5904 17.5857C39.3932 17.9284 39.5412 18.3839 39.9214 18.6029C40.3017 18.8217 40.7698 18.7213 40.9673 18.3785L45.6729 10.2062C45.8702 9.8634 45.804 9.31095 45.4236 9.09203C45.0435 8.8731 44.4934 9.07054 44.2961 9.41337L39.5904 17.5857Z" fill="#62B578"/>
<path d="M30.039 14.1792C17.3515 14.1792 6.9623 23.7098 6.07788 35.7853H54C53.1158 23.7098 42.7267 14.1792 30.039 14.1792ZM19.0147 29.1528C17.8944 29.1528 16.9863 28.2448 16.9863 27.1245C16.9863 26.0042 17.8944 25.0961 19.0147 25.0961C20.135 25.0961 21.043 26.0042 21.043 27.1245C21.043 28.2448 20.135 29.1528 19.0147 29.1528ZM41.0204 29.1528C39.9001 29.1528 38.992 28.2448 38.992 27.1245C38.992 26.0042 39.9001 25.0961 41.0204 25.0961C42.1407 25.0961 43.0487 26.0042 43.0487 27.1245C43.0487 28.2448 42.1407 29.1528 41.0204 29.1528Z" fill="#62B578"/>
</g>
</svg>
