<svg width="17" height="17" viewBox="0 0 17 17" fill="none" xmlns="http://www.w3.org/2000/svg">
<path d="M2.3043 12.4948C1.80915 12.4948 1.30001 12.8915 1.30001 13.586C1.30001 14.2209 1.74766 14.6694 2.3043 14.6694C2.76377 14.6694 2.96855 14.361 2.96855 14.361V14.4954C2.96855 14.559 3.02862 14.6298 3.10298 14.6298H3.43511V12.5422H2.96855V12.8071C2.96855 12.8071 2.76205 12.4948 2.3043 12.4948ZM2.38741 12.9216C2.79502 12.9216 3.00883 13.2801 3.00883 13.5859C3.00883 13.9264 2.75497 14.2499 2.38827 14.2499C2.08174 14.2499 1.77468 14.0016 1.77468 13.5814C1.77468 13.202 2.03892 12.9216 2.38741 12.9216Z" fill="#8E8E93"/>
<path d="M4.08356 14.6299C4.01188 14.6299 3.94913 14.5785 3.94913 14.4954V12.5422H4.41568V12.8006C4.52141 12.6417 4.72795 12.4941 5.04499 12.4941C5.56316 12.4941 5.83909 12.9072 5.83909 13.2935V14.6299H5.51487C5.42985 14.6299 5.37253 14.5587 5.37253 14.4875V13.3963C5.37253 13.1822 5.24135 12.9221 4.93797 12.9221C4.61061 12.9221 4.41569 13.2315 4.41569 13.5228V14.6299L4.08356 14.6299Z" fill="#8E8E93"/>
<path d="M7.19918 12.4948C6.70404 12.4948 6.1949 12.8916 6.1949 13.5861C6.1949 14.221 6.64255 14.6694 7.19918 14.6694C7.65865 14.6694 7.86344 14.361 7.86344 14.361V14.4955C7.86344 14.559 7.92351 14.6299 7.99787 14.6299H8.32999V11.4984H7.86344V12.8071C7.86344 12.8071 7.65694 12.4948 7.19918 12.4948ZM7.28229 12.9217C7.6899 12.9217 7.90372 13.2802 7.90372 13.5859C7.90372 13.9265 7.64985 14.2499 7.28316 14.2499C6.97662 14.2499 6.66956 14.0017 6.66956 13.5814C6.66956 13.2021 6.93381 12.9217 7.28229 12.9217Z" fill="#8E8E93"/>
<path d="M8.97844 14.6298C8.90676 14.6298 8.84401 14.5784 8.84401 14.4954V12.5422H9.31057V12.8901C9.39087 12.6952 9.56416 12.5184 9.87202 12.5184C9.95784 12.5184 10.0381 12.5342 10.0381 12.5342V13.0166C10.0381 13.0166 9.93788 12.9771 9.81666 12.9771C9.48931 12.9771 9.31057 13.2865 9.31057 13.5777V14.6298H8.97844Z" fill="#8E8E93"/>
<path d="M12.869 14.6299C12.7974 14.6299 12.7346 14.5785 12.7346 14.4955V12.5422H13.2012V14.6299L12.869 14.6299Z" fill="#8E8E93"/>
<path d="M14.5692 12.4948C14.0741 12.4948 13.5649 12.8916 13.5649 13.5861C13.5649 14.221 14.0126 14.6694 14.5692 14.6694C15.0287 14.6694 15.2335 14.361 15.2335 14.361V14.4955C15.2335 14.559 15.2935 14.6299 15.3679 14.6299H15.7V11.4984H15.2335V12.8071C15.2335 12.8071 15.027 12.4948 14.5692 12.4948ZM14.6523 12.9217C15.0599 12.9217 15.2737 13.2802 15.2737 13.5859C15.2737 13.9265 15.0199 14.2499 14.6532 14.2499C14.3466 14.2499 14.0396 14.0017 14.0396 13.5814C14.0396 13.2021 14.3038 12.9217 14.6523 12.9217Z" fill="#8E8E93"/>
<path d="M12.9646 12.092C13.135 12.092 13.2731 11.9538 13.2731 11.7835C13.2731 11.6131 13.135 11.475 12.9646 11.475C12.7942 11.475 12.6561 11.6131 12.6561 11.7835C12.6561 11.9538 12.7942 12.092 12.9646 12.092Z" fill="#8E8E93"/>
<path d="M11.2685 12.494C10.75 12.494 10.1803 12.8811 10.1803 13.5823C10.1803 14.2212 10.6655 14.6694 11.2674 14.6694C12.0092 14.6694 12.3714 14.0731 12.3714 13.5863C12.3714 12.989 11.905 12.494 11.2685 12.494ZM11.2702 12.9297C11.6288 12.9297 11.8963 13.2187 11.8963 13.5836C11.8963 13.9548 11.6124 14.2412 11.2713 14.2412C10.9547 14.2412 10.6469 13.9835 10.6469 13.5898C10.6469 13.1895 10.9397 12.9297 11.2702 12.9297Z" fill="#8E8E93"/>
<path d="M12.0142 4.53134L13.208 2.46348C13.2753 2.34755 13.2346 2.20029 13.1202 2.13293C13.0059 2.06557 12.8571 2.10473 12.7913 2.22066L11.5819 4.31515C10.6592 3.89375 9.62054 3.65876 8.50358 3.65876C7.38662 3.65876 6.34799 3.89374 5.42528 4.31515L4.21589 2.22066C4.14853 2.10473 4.00127 2.06557 3.88535 2.13293C3.76942 2.20029 3.73026 2.34755 3.79762 2.46348L4.99134 4.53134C2.93288 5.64673 1.53863 7.73026 1.30835 10.1694H15.6988C15.4685 7.73024 14.0743 5.64671 12.0142 4.53134ZM5.19969 8.14853C4.86602 8.14853 4.59657 7.87751 4.59657 7.5454C4.59657 7.21172 4.86758 6.94228 5.19969 6.94228C5.53337 6.94228 5.80282 7.21329 5.80282 7.5454C5.80439 7.87751 5.53337 8.14853 5.19969 8.14853ZM11.8059 8.14853C11.4722 8.14853 11.2028 7.87751 11.2028 7.5454C11.2028 7.21172 11.4738 6.94228 11.8059 6.94228C12.1396 6.94228 12.409 7.21329 12.409 7.5454C12.4106 7.87751 12.1396 8.14853 11.8059 8.14853Z" fill="#8E8E93"/>
</svg>
