<svg width="60" height="60" viewBox="0 0 60 60" fill="none" xmlns="http://www.w3.org/2000/svg">
<g style="mix-blend-mode:luminosity">
<g clip-path="url(#clip0_146_1963)">
<mask id="mask0_146_1963" style="mask-type:luminance" maskUnits="userSpaceOnUse" x="10" y="6" width="40" height="49">
<path d="M49.2619 28.899L36.3413 41.8243L49.2619 54.7496H34.4974L21.5722 41.8243L34.4974 28.899H49.2619ZM34.4974 6.75L10.4999 30.7475L17.8845 38.1321L49.2619 6.75H34.4974Z" fill="white"/>
</mask>
<g mask="url(#mask0_146_1963)">
<path d="M21.5768 41.8243L28.9567 49.2089L49.2619 28.899H34.4974L21.5768 41.8243Z" fill="#39CEFD"/>
</g>
<mask id="mask1_146_1963" style="mask-type:luminance" maskUnits="userSpaceOnUse" x="10" y="6" width="40" height="49">
<path d="M49.2619 28.899L36.3413 41.8243L49.2619 54.7496H34.4974L21.5722 41.8243L34.4974 28.899H49.2619ZM34.4974 6.75L10.4999 30.7475L17.8845 38.1321L49.2619 6.75H34.4974Z" fill="white"/>
</mask>
<g mask="url(#mask1_146_1963)">
<path d="M34.4974 6.75H49.2619L17.8845 38.1321L10.4999 30.7475L34.4974 6.75Z" fill="#39CEFD"/>
</g>
<mask id="mask2_146_1963" style="mask-type:luminance" maskUnits="userSpaceOnUse" x="10" y="6" width="40" height="49">
<path d="M49.2619 28.899L36.3413 41.8243L49.2619 54.7496H34.4974L21.5722 41.8243L34.4974 28.899H49.2619ZM34.4974 6.75L10.4999 30.7475L17.8845 38.1321L49.2619 6.75H34.4974Z" fill="white"/>
</mask>
<g mask="url(#mask2_146_1963)">
<path d="M28.9567 49.2089L34.4975 54.745H49.2619L36.3413 41.8243L28.9567 49.2089Z" fill="#03569B"/>
</g>
<mask id="mask3_146_1963" style="mask-type:luminance" maskUnits="userSpaceOnUse" x="10" y="6" width="40" height="49">
<path d="M49.2619 28.899L36.3413 41.8243L49.2619 54.7496H34.4974L21.5722 41.8243L34.4974 28.899H49.2619ZM34.4974 6.75L10.4999 30.7475L17.8845 38.1321L49.2619 6.75H34.4974Z" fill="white"/>
</mask>
<g mask="url(#mask3_146_1963)">
<path d="M39.9088 45.415L36.3413 41.8243L28.9567 49.2089L39.9088 45.415Z" fill="url(#paint0_linear_146_1963)"/>
</g>
<mask id="mask4_146_1963" style="mask-type:luminance" maskUnits="userSpaceOnUse" x="10" y="6" width="40" height="49">
<path d="M49.2619 28.899L36.3413 41.8243L49.2619 54.7496H34.4974L21.5722 41.8243L34.4974 28.899H49.2619ZM34.4974 6.75L10.4999 30.7475L17.8845 38.1321L49.2619 6.75H34.4974Z" fill="white"/>
</mask>
<g mask="url(#mask4_146_1963)">
<path d="M21.5759 41.8218L28.9607 34.437L36.3459 41.8218L28.9607 49.2066L21.5759 41.8218Z" fill="#16B9FD"/>
</g>
<path d="M49.2619 28.899L36.3413 41.8243L49.2619 54.7496H34.4974L21.5722 41.8243L34.4974 28.899H49.2619ZM34.4974 6.75L10.4999 30.7475L17.8845 38.1321L49.2619 6.75H34.4974Z" fill="url(#paint1_radial_146_1963)"/>
</g>
</g>
<defs>
<linearGradient id="paint0_linear_146_1963" x1="31.1118" y1="50.634" x2="36.6116" y2="45.1342" gradientUnits="userSpaceOnUse">
<stop stop-color="#1A237E" stop-opacity="0.4"/>
<stop offset="1" stop-color="#1A237E" stop-opacity="0"/>
</linearGradient>
<radialGradient id="paint1_radial_146_1963" cx="0" cy="0" r="1" gradientUnits="userSpaceOnUse" gradientTransform="translate(11.5889 10.0215) scale(58.7217 58.7217)">
<stop stop-color="white" stop-opacity="0.1"/>
<stop offset="1" stop-color="white" stop-opacity="0"/>
</radialGradient>
<clipPath id="clip0_146_1963">
<rect width="48" height="48" fill="white" transform="translate(6 6.75)"/>
</clipPath>
</defs>
</svg>
