<svg width="60" height="60" viewBox="0 0 60 60" fill="none" xmlns="http://www.w3.org/2000/svg">
<g style="mix-blend-mode:luminosity">
<g clip-path="url(#clip0_146_362)">
<path d="M30.0326 19.1266C23.9918 19.1266 19.0939 24.0245 19.0939 30.0654C19.0939 36.1062 23.9918 41.0041 30.0326 41.0041C36.0735 41.0041 40.9714 36.1062 40.9714 30.0654C40.9388 24.0245 36.0408 19.1266 30.0326 19.1266Z" fill="#3880FF"/>
<path d="M45.7061 20.1061C48.4653 20.1061 50.702 17.8693 50.702 15.1102C50.702 12.351 48.4653 10.1143 45.7061 10.1143C42.947 10.1143 40.7102 12.351 40.7102 15.1102C40.7102 17.8693 42.947 20.1061 45.7061 20.1061Z" fill="#3880FF"/>
<path d="M51.8449 20.1061L51.649 19.649L51.3224 20.0408C50.5061 20.9551 49.4612 21.6735 48.3184 22.098L47.9918 22.2286L48.1224 22.5551C49.1347 24.9388 49.6245 27.4857 49.6245 30.0653C49.6245 40.8735 40.8408 49.6898 30 49.6898C19.1592 49.6898 10.4082 40.8735 10.4082 30.0653C10.4082 19.2571 19.1918 10.4408 30.0327 10.4408C32.9714 10.4408 35.7796 11.0939 38.4245 12.3347L38.7184 12.4653L38.849 12.1388C39.3388 10.9959 40.0898 10.0163 41.0694 9.23265L41.4612 8.90612L41.0041 8.67755C37.5755 6.91428 33.8857 6 30 6C16.7755 6 6 16.7755 6 30C6 43.2245 16.7755 54 30 54C43.2245 54 54 43.2245 54 30C54 26.6041 53.2816 23.2735 51.8449 20.1061Z" fill="#3880FF"/>
</g>
</g>
<defs>
<clipPath id="clip0_146_362">
<rect width="48" height="48" fill="white" transform="translate(6 6)"/>
</clipPath>
</defs>
</svg>
