<svg width="60" height="60" viewBox="0 0 60 60" fill="none" xmlns="http://www.w3.org/2000/svg">
<g style="mix-blend-mode:luminosity">
<g clip-path="url(#clip0_146_694)">
<path d="M6 6.67896H54V54.679H6V6.67896Z" fill="#FFDF00"/>
<path d="M38.2438 44.1792C39.2106 45.7578 40.4686 46.9182 42.6934 46.9182C44.5623 46.9182 45.7562 45.984 45.7562 44.6934C45.7562 43.1467 44.5296 42.5989 42.4724 41.6991L41.3448 41.2152C38.0899 39.8286 35.9276 38.0914 35.9276 34.419C35.9276 31.0362 38.5052 28.4609 42.5333 28.4609C45.4011 28.4609 47.4629 29.459 48.9486 32.0724L45.4362 34.3276C44.6629 32.941 43.8286 32.3947 42.5333 32.3947C41.2122 32.3947 40.3748 33.2328 40.3748 34.3276C40.3748 35.6808 41.213 36.2286 43.1481 37.0667L44.2758 37.5497C48.1082 39.1932 50.2719 40.8686 50.2719 44.6354C50.2719 48.6964 47.0818 50.9212 42.7976 50.9212C38.6087 50.9212 35.9024 48.925 34.5782 46.3086L38.2438 44.1792ZM22.3101 44.57C23.0186 45.8272 23.6632 46.89 25.2129 46.89C26.6948 46.89 27.6297 46.3102 27.6297 44.0558V28.7186H32.1402V44.1166C32.1402 48.7871 29.402 50.9128 25.4049 50.9128C21.7935 50.9128 19.7021 49.0438 18.6384 46.7928L22.3101 44.57Z" fill="black"/>
</g>
</g>
<defs>
<clipPath id="clip0_146_694">
<rect width="48" height="48" fill="white" transform="translate(6 6.67896)"/>
</clipPath>
</defs>
</svg>
