<svg width="60" height="60" viewBox="0 0 60 60" fill="none" xmlns="http://www.w3.org/2000/svg">
<g style="mix-blend-mode:luminosity">
<g clip-path="url(#clip0_146_1216)">
<path d="M53.828 28.9156C53.4856 28.5732 49.0908 23.0369 48.3488 22.1237C47.5498 21.2105 47.2073 21.3817 46.6936 21.4388C46.18 21.4959 40.6437 22.4662 40.0159 22.5232C39.3881 22.6374 38.9885 22.8657 39.3881 23.4364C39.7305 23.9501 43.3833 29.0869 44.1823 30.2854L29.6282 33.767L18.0991 14.4186C17.6425 13.7337 17.5284 13.5054 16.501 13.5625C15.4737 13.6195 7.42611 14.3044 6.85536 14.3044C6.28461 14.3615 5.65678 14.5898 6.22753 15.9596C6.79828 17.3294 15.9303 36.9632 16.1586 37.5339C16.3869 38.1047 17.0718 39.0179 18.6128 38.6754C20.2109 38.2759 25.6901 36.849 28.715 36.05C30.3131 38.9037 33.5093 44.7254 34.1372 45.5815C34.9362 46.723 35.507 46.4947 36.7055 46.1522C37.6758 45.8669 51.6592 40.8443 52.287 40.5589C52.9148 40.2735 53.3143 40.1023 52.8577 39.4745C52.5153 39.0179 48.8625 34.0524 46.9219 31.484C48.2347 31.1415 52.9719 29.8859 53.4856 29.7147C54.0563 29.5434 54.1705 29.2581 53.828 28.9156ZM27.4023 34.3377C27.2311 34.3948 19.0694 36.3354 18.6699 36.4495C18.2133 36.5637 18.2133 36.5066 18.2133 36.3354C18.0991 36.1641 8.51053 16.3021 8.33931 16.0738C8.22516 15.8455 8.22516 15.6172 8.33931 15.6172C8.45346 15.6172 16.0444 14.9323 16.2727 14.9323C16.5581 14.9323 16.501 14.9893 16.6152 15.1606C16.6152 15.1606 27.2882 33.5958 27.4594 33.8811C27.6877 34.1665 27.5736 34.2807 27.4023 34.3377ZM50.3464 38.6184C50.4606 38.8467 50.6318 38.9608 50.1752 39.075C49.7757 39.2462 36.4202 43.7551 36.1348 43.8693C35.8494 43.9834 35.6782 44.0405 35.3357 43.5268C34.9933 43.0131 30.6556 35.5363 30.6556 35.5363L44.8672 31.8264C45.2097 31.7123 45.3238 31.6552 45.5521 31.9977C45.7804 32.3972 50.2323 38.4471 50.3464 38.6184ZM51.2596 28.5732C50.9172 28.6303 45.7234 29.943 45.7234 29.943L41.4428 24.1213C41.3286 23.9501 41.2145 23.7789 41.4998 23.7218C41.7852 23.6647 46.6366 22.8086 46.8649 22.7515C47.0932 22.6945 47.2644 22.6374 47.5498 23.0369C47.8351 23.3794 51.4879 28.0595 51.6592 28.2307C51.8304 28.402 51.6021 28.5161 51.2596 28.5732Z" fill="#FB503B"/>
</g>
</g>
<defs>
<clipPath id="clip0_146_1216">
<rect width="48" height="32.8896" fill="white" transform="translate(5.99927 13.5553)"/>
</clipPath>
</defs>
</svg>
