<svg width="60" height="60" viewBox="0 0 60 60" fill="none" xmlns="http://www.w3.org/2000/svg">
<g style="mix-blend-mode:luminosity">
<path d="M18.1046 26.2639C18.5671 26.2057 19.0366 26.2398 19.4859 26.3642C19.9351 26.4885 20.3553 26.7007 20.7221 26.9884C20.9588 27.3529 21.1097 27.7664 21.1634 28.1977C21.2172 28.629 21.1725 29.0669 21.0326 29.4784C20.9099 30.4914 20.4199 31.4243 19.6556 32.1004C18.7338 32.6942 17.6442 32.9726 16.5506 32.8939H14.4506L15.7406 26.2774L18.1046 26.2639ZM9.70459 39.5929H13.1546L13.9721 35.3929H16.9226C18.0096 35.4206 19.0943 35.2804 20.1386 34.9774C20.9962 34.6943 21.7802 34.2239 22.4336 33.6004C23.5637 32.5842 24.3254 31.2223 24.5996 29.7274C24.8161 28.9834 24.8542 28.1988 24.7108 27.4373C24.5675 26.6758 24.2467 25.9588 23.7746 25.3444C23.2054 24.7803 22.5198 24.3472 21.7659 24.0754C21.012 23.8037 20.2078 23.6997 19.4096 23.7709H12.7901L9.70459 39.5929Z" fill="#8993BE"/>
<path d="M27.1301 19.5619H30.5546L29.7251 23.7619H32.7716C34.1712 23.6153 35.5774 23.971 36.7391 24.7654C37.1235 25.2023 37.3862 25.7326 37.501 26.3031C37.6158 26.8736 37.5786 27.4643 37.3931 28.0159L35.9621 35.3794H32.4971L33.8591 28.3789C33.9539 28.1118 33.9877 27.8269 33.9581 27.545C33.9285 27.2632 33.8363 26.9915 33.6881 26.7499C33.1916 26.3936 32.5778 26.2402 31.9721 26.3209H29.2376L27.4751 35.3869H24.0431L27.1301 19.5619Z" fill="#8993BE"/>
<path d="M45.013 26.2639C45.4756 26.2058 45.945 26.2398 46.3943 26.3642C46.8436 26.4886 47.2637 26.7007 47.6305 26.9884C47.8672 27.353 48.0181 27.7664 48.0719 28.1977C48.1257 28.629 48.0809 29.0669 47.941 29.4784C47.8183 30.4915 47.3284 31.4243 46.564 32.1004C45.6406 32.6955 44.5487 32.974 43.453 32.8939H41.3545L42.6415 26.2699L45.013 26.2639ZM36.613 39.5929H40.063L40.8805 35.3929H43.8325C44.9215 35.4212 46.0084 35.2811 47.0545 34.9774C47.9122 34.6943 48.6961 34.2239 49.3495 33.6004C50.4769 32.5831 51.2358 31.2213 51.508 29.7274C51.7245 28.9834 51.7626 28.1988 51.6193 27.4373C51.4759 26.6758 51.1552 25.9588 50.683 25.3444C50.1136 24.7813 49.4281 24.3492 48.6745 24.0782C47.9209 23.8072 47.1172 23.7039 46.3195 23.7754H39.6895L36.613 39.5929Z" fill="#8993BE"/>
</g>
</svg>
