<svg width="60" height="60" viewBox="0 0 60 60" fill="none" xmlns="http://www.w3.org/2000/svg">
<g style="mix-blend-mode:luminosity">
<path d="M30.0002 34.5986C32.3671 34.5986 34.2859 32.6799 34.2859 30.3129C34.2859 27.946 32.3671 26.0272 30.0002 26.0272C27.6333 26.0272 25.7145 27.946 25.7145 30.3129C25.7145 32.6799 27.6333 34.5986 30.0002 34.5986Z" fill="#00D8FF"/>
<path d="M30 40.1392C24.8488 40.2638 19.7105 39.5694 14.7771 38.082C12.4982 37.3596 10.3727 36.2216 8.508 34.7254C7.79645 34.2143 7.20389 33.5553 6.77099 32.7937C6.33808 32.032 6.07507 31.1857 6 30.3129C6 27.4792 9.11314 24.702 14.328 22.8849C19.3933 21.2747 24.6856 20.4944 30 20.574C35.2435 20.5008 40.4649 21.267 45.4663 22.8437C47.6611 23.5434 49.7145 24.6265 51.5314 26.0426C52.2308 26.5299 52.8145 27.165 53.2411 27.9029C53.6677 28.6409 53.9268 29.4636 54 30.3129C54 33.258 50.52 36.2426 44.9143 38.0974C40.0764 39.5364 35.0466 40.2249 30 40.1392ZM30 22.6243C24.9156 22.5563 19.8528 23.2982 15.0017 24.822C10.2017 26.4969 8.05029 28.7872 8.05029 30.3077C8.05029 31.8986 10.3629 34.3997 15.4406 36.1363C20.1601 37.5521 25.0742 38.2111 30 38.0889C34.8281 38.1752 39.641 37.5219 44.2714 36.1517C49.5429 34.4049 51.9429 31.9003 51.9429 30.3129C51.8564 29.7681 51.6578 29.2472 51.3598 28.7831C51.0618 28.3189 50.6708 27.9217 50.2114 27.6163C48.5859 26.36 46.7515 25.4001 44.7926 24.7809C40.008 23.2787 35.0142 22.5507 30 22.6243Z" fill="#00D8FF"/>
<path d="M20.2635 51.6882C19.4638 51.7066 18.6735 51.5126 17.9732 51.1259C15.5184 49.7099 14.6681 45.6265 15.6984 40.2008C16.8343 35.0084 18.8026 30.0339 21.5269 25.4699C24.0825 20.8913 27.3541 16.7509 31.2178 13.2059C32.9203 11.654 34.8844 10.416 37.0189 9.54938C37.791 9.18756 38.6332 9 39.4858 9C40.3384 9 41.1806 9.18756 41.9526 9.54938C44.5052 11.0202 45.3504 15.5254 44.1589 21.3077C42.9879 26.2183 41.0707 30.9204 38.4744 35.2499C36.0088 39.7746 32.8401 43.8788 29.0869 47.4094C27.3226 49.0221 25.2749 50.2944 23.0475 51.1619C22.1558 51.4929 21.2145 51.6708 20.2635 51.6882ZM23.3029 26.4882C20.7042 30.8585 18.8178 35.6146 17.7144 40.5779C16.7664 45.5751 17.6766 48.5802 19.0001 49.3448C20.3715 50.1385 23.7006 49.3859 27.7429 45.8545C31.3258 42.4721 34.3502 38.5434 36.7035 34.2145C39.1908 30.0754 41.0298 25.5799 42.1566 20.8842C43.2778 15.4414 42.3092 12.1088 40.9344 11.3168C40.4191 11.1194 39.8684 11.031 39.3172 11.0572C38.766 11.0835 38.2263 11.2238 37.7321 11.4694C35.8321 12.2534 34.0853 13.3665 32.5721 14.7574C28.8806 18.153 25.7555 22.1167 23.3149 26.4985L23.3029 26.4882Z" fill="#00D8FF"/>
<path d="M39.7312 51.7105C37.4083 51.7105 34.458 50.3048 31.386 47.6631C27.4547 44.0859 24.1277 39.8964 21.534 35.2568C18.8439 30.7557 16.8912 25.8532 15.75 20.7351C15.2551 18.4834 15.1634 16.1617 15.4792 13.878C15.5522 13.0308 15.8101 12.2099 16.2349 11.4733C16.6596 10.7366 17.2408 10.1021 17.9375 9.61455C20.4866 8.13855 24.8117 9.65569 29.226 13.5745C32.8956 17.0411 36.0118 21.05 38.466 25.4614C41.1545 29.8574 43.1277 34.6526 44.3117 39.6677C44.8279 42.002 44.9076 44.4118 44.5466 46.7751C44.4607 47.6467 44.1874 48.4893 43.7453 49.2454C43.3032 50.0014 42.7029 50.6529 41.9855 51.1551C41.2966 51.5369 40.5186 51.7286 39.7312 51.7105ZM23.3083 34.2248C25.7965 38.6587 28.9745 42.6683 32.7232 46.1031C36.5786 49.4203 39.6369 50.1334 40.9517 49.3603C42.3232 48.5631 43.3346 45.3094 42.2923 40.0448C41.1504 35.2567 39.2578 30.6795 36.6849 26.4831C34.3429 22.261 31.3684 18.4223 27.8649 15.1003C23.7095 11.4111 20.3392 10.5865 18.966 11.382C18.538 11.7298 18.1868 12.1625 17.9345 12.6529C17.6823 13.1433 17.5344 13.6807 17.5003 14.2311C17.2277 16.2678 17.3165 18.3367 17.7626 20.3425C18.8603 25.2371 20.733 29.9247 23.31 34.2283L23.3083 34.2248Z" fill="#00D8FF"/>
</g>
</svg>
