<svg width="60" height="60" viewBox="0 0 60 60" fill="none" xmlns="http://www.w3.org/2000/svg">
<g style="mix-blend-mode:luminosity">
<path d="M53.5787 18.6043C53.5784 17.5437 53.4764 16.4858 53.2744 15.4466C53.0723 14.3826 52.7288 13.3536 52.2539 12.3896C51.7576 11.4558 51.1407 10.5982 50.4208 9.84078C49.6782 9.07992 48.8157 8.45913 47.8714 8.00579C46.9394 7.51365 45.9425 7.16976 44.9137 6.98546C43.8932 6.77978 42.7725 6.77978 41.752 6.67896H16.5774C15.7921 6.69235 15.0086 6.76106 14.2321 6.88463C13.4615 6.97963 12.7072 7.18593 11.9907 7.49764C11.7866 7.59846 11.4824 7.70332 11.2783 7.80414C10.6004 8.18467 9.95603 8.62734 9.35274 9.12695C9.14863 9.33263 8.94452 9.43345 8.74041 9.6351C7.98986 10.3641 7.36915 11.2272 6.90729 12.1839C6.40293 13.1344 6.05776 14.1683 5.88676 15.2409C5.73499 16.2875 5.63345 17.3414 5.58252 18.3987V42.7536C5.58284 43.8142 5.68476 44.8721 5.88676 45.9114C6.08885 46.9753 6.43238 48.0043 6.90729 48.9683C7.40362 49.9021 8.02046 50.7598 8.74041 51.5171C9.48296 52.278 10.3455 52.8988 11.2898 53.3521C12.2218 53.8443 13.2187 54.1881 14.2475 54.3725C15.268 54.5781 16.3887 54.5781 17.4092 54.679H41.7558C42.8165 54.6781 43.8748 54.5755 44.9176 54.3725C45.9464 54.1881 46.9432 53.8443 47.8752 53.3521C48.7994 52.8624 49.6568 52.2452 50.4246 51.5171C51.1752 50.7881 51.7959 49.9251 52.2577 48.9683C52.7621 48.0178 53.1073 46.9839 53.2783 45.9114C53.4301 44.8647 53.5316 43.8108 53.5825 42.7536V18.6043H53.5787Z" fill="#F05138"/>
<path d="M38.8758 44.126C34.5751 46.4989 28.6641 46.7428 22.7145 44.308C18.0756 42.4258 14.1093 39.1931 11.33 35.0293C12.6216 36.018 14.0327 36.84 15.53 37.4757C21.6732 40.2241 27.8125 40.0344 32.1364 37.4757C25.9816 32.9622 20.7558 27.0938 16.8616 22.3015C16.0931 21.4916 15.4071 20.6073 14.8138 19.6615C19.5209 23.7686 27.0074 28.9518 29.6706 30.4189C25.8681 26.5228 22.3737 22.3373 19.219 17.9002C24.463 22.9963 30.2334 27.521 36.4332 31.3983C36.708 31.5454 36.9209 31.6693 37.0912 31.7854C37.273 31.3417 37.4294 30.8881 37.5596 30.4267C38.9958 25.437 37.3545 19.766 33.77 15.0706C42.0693 19.8589 47.0048 28.8551 44.9377 36.388C44.8835 36.5931 44.8254 36.7751 44.7635 36.988L44.8371 37.0731C48.9364 41.9622 47.81 47.1376 47.2951 46.1699C45.0693 41.997 40.9545 43.286 38.8758 44.126Z" fill="#FEFEFE"/>
</g>
</svg>
