<svg width="60" height="60" viewBox="0 0 60 60" fill="none" xmlns="http://www.w3.org/2000/svg">
<g style="mix-blend-mode:luminosity">
<g clip-path="url(#clip0_106_101)">
<path d="M11.8101 21.7643L21.6326 48.6724C14.7665 45.3385 10.0294 38.2934 10.0294 30.145C10.0267 27.2573 10.6335 24.4015 11.8101 21.7643ZM44.5149 29.1047C44.5149 26.5595 43.6004 24.7982 42.8165 23.4288C41.7762 21.7305 40.7988 20.2934 40.7988 18.5998C40.7988 16.7079 42.231 14.9466 44.2536 14.9466C44.3455 14.9466 44.4326 14.9563 44.5197 14.9611C40.7291 11.4776 35.7663 9.5481 30.6181 9.55626C23.423 9.55626 17.0988 13.2482 13.4165 18.8369C13.9004 18.8514 14.3552 18.8611 14.7423 18.8611C16.8955 18.8611 20.2294 18.5998 20.2294 18.5998C21.3375 18.5321 21.4681 20.1627 20.3601 20.2982C20.3601 20.2982 19.2423 20.4288 18.0036 20.4917L25.4988 42.7934L30.0036 29.2788L26.8004 20.4917C25.6875 20.424 24.6375 20.2934 24.6375 20.2934C23.5294 20.2305 23.6601 18.5321 24.7681 18.5998C24.7681 18.5998 28.1697 18.8611 30.1923 18.8611C32.3455 18.8611 35.6794 18.5998 35.6794 18.5998C36.7923 18.5321 36.9181 20.1627 35.8101 20.2934C35.8101 20.2934 34.6923 20.424 33.4536 20.4917L40.8955 42.624L42.9471 35.7627C43.8375 32.9127 44.5149 30.8659 44.5149 29.1047ZM30.981 31.945L24.802 49.8966C28.95 51.1157 33.3762 51.0006 37.4552 49.5676C37.3963 49.4781 37.3477 49.3823 37.3101 49.2821L30.981 31.945ZM48.681 20.2643C48.7769 20.9667 48.8238 21.6748 48.8213 22.3837C48.8213 24.474 48.4294 26.8208 47.2536 29.7579L40.9681 47.9417C47.0891 44.3708 51.2068 37.7417 51.2068 30.145C51.2121 26.6911 50.3431 23.292 48.681 20.2643ZM54.6181 30.145C54.6181 43.3788 43.852 54.145 30.6181 54.145C17.3842 54.145 6.61812 43.3788 6.61812 30.145C6.61812 16.9111 17.3842 6.14497 30.6181 6.14497C43.852 6.14497 54.6181 16.9111 54.6181 30.145ZM53.5149 30.145C53.5149 17.5159 43.2423 7.24336 30.6181 7.24336C17.9939 7.24336 7.71651 17.5159 7.71651 30.145C7.71651 42.774 17.9891 53.0466 30.6181 53.0466C43.2471 53.0466 53.5149 42.774 53.5149 30.145Z" fill="#21759B"/>
</g>
</g>
<defs>
<clipPath id="clip0_106_101">
<rect width="48" height="48" fill="white" transform="translate(6.61816 6.14502)"/>
</clipPath>
</defs>
</svg>
