<svg width="16" height="16" viewBox="0 0 16 16" fill="none" xmlns="http://www.w3.org/2000/svg">
<g clip-path="url(#clip0_104_4668)">
<path d="M0 8.51558V10.1156C0 10.5574 0.358188 10.9156 0.8 10.9156H1.06666V7.71558H0.8C0.358188 7.71558 0 8.07376 0 8.51558Z" fill="#6852D6"/>
<path d="M15.2 7.71558H14.9333V10.9156H15.2C15.6418 10.9156 16 10.5574 16 10.1156V8.51558C16 8.07376 15.6418 7.71558 15.2 7.71558Z" fill="#6852D6"/>
<path d="M9.3333 1.58224C9.33168 2.2153 8.88655 2.76059 8.26664 2.8889V4.2489H7.7333V2.8889C7.04583 2.74859 6.58477 2.09946 6.67861 1.40415C6.77246 0.708835 7.38914 0.20521 8.08921 0.252179C8.78927 0.299148 9.33314 0.880617 9.3333 1.58224Z" fill="#6852D6"/>
<path d="M11.2 9.31558C11.6419 9.31558 12 8.9574 12 8.51558C12 8.07375 11.6419 7.71558 11.2 7.71558C10.7582 7.71558 10.4 8.07375 10.4 8.51558C10.4 8.9574 10.7582 9.31558 11.2 9.31558Z" fill="#6852D6"/>
<path d="M4.8 9.31558C5.24183 9.31558 5.6 8.9574 5.6 8.51558C5.6 8.07375 5.24183 7.71558 4.8 7.71558C4.35817 7.71558 4 8.07375 4 8.51558C4 8.9574 4.35817 9.31558 4.8 9.31558Z" fill="#6852D6"/>
<path d="M12.8 4.78223H3.19998C2.31632 4.78223 1.59998 5.49857 1.59998 6.38223V12.2489C1.59998 13.1304 2.31291 13.8458 3.19438 13.8489C3.26591 13.8479 3.33485 13.8756 3.38594 13.9256C3.43704 13.9757 3.4661 14.044 3.46666 14.1156V15.4839C3.46654 15.5823 3.52066 15.6728 3.60741 15.7192C3.69416 15.7657 3.79948 15.7606 3.88132 15.706L6.53332 13.9385C6.6206 13.8803 6.7231 13.8491 6.82798 13.8489H12.8C13.6836 13.8489 14.4 13.1326 14.4 12.2489V6.38219C14.4 5.49857 13.6836 4.78223 12.8 4.78223ZM4.79998 9.84888C4.0636 9.84888 3.46663 9.25191 3.46663 8.51554C3.46663 7.77916 4.0636 7.1822 4.79998 7.1822C5.53635 7.1822 6.13332 7.77916 6.13332 8.51554C6.13241 9.25157 5.53598 9.84801 4.79998 9.84888ZM9.55944 10.7902C9.54263 10.8171 9.13463 11.4489 7.99998 11.4489C6.86532 11.4489 6.45732 10.8171 6.44051 10.7902C6.36498 10.6661 6.40273 10.5044 6.52535 10.4265C6.64798 10.3486 6.81041 10.3832 6.89063 10.5043C6.90663 10.5273 7.18557 10.9155 7.99998 10.9155C8.82157 10.9155 9.09838 10.5206 9.10957 10.5038C9.19113 10.3828 9.35426 10.3488 9.47729 10.4273C9.59941 10.5054 9.63601 10.6671 9.55944 10.7902ZM11.2 9.84888C10.4636 9.84888 9.86663 9.25191 9.86663 8.51554C9.86663 7.77916 10.4636 7.1822 11.2 7.1822C11.9363 7.1822 12.5333 7.77916 12.5333 8.51554C12.5324 9.25157 11.936 9.84801 11.2 9.84888Z" fill="#6852D6"/>
</g>
<defs>
<clipPath id="clip0_104_4668">
<rect width="16" height="16" fill="white"/>
</clipPath>
</defs>
</svg>
