<svg width="16" height="16" viewBox="0 0 16 16" fill="none" xmlns="http://www.w3.org/2000/svg">
<path fill-rule="evenodd" clip-rule="evenodd" d="M9.94073 3.35833C10.1608 3.34034 10.4284 3.33527 10.7807 3.33385C11.0554 4.11035 11.7961 4.66663 12.6667 4.66663C13.7713 4.66663 14.6667 3.7712 14.6667 2.66663C14.6667 1.56206 13.7713 0.666626 12.6667 0.666626C11.7957 0.666626 11.0548 1.22339 10.7803 2.00044C10.4155 2.00186 10.101 2.00746 9.83216 2.02942C9.45743 2.06004 9.11296 2.12575 8.7894 2.29061C8.28763 2.54627 7.87969 2.95422 7.62402 3.45599C7.45916 3.77954 7.39345 4.12401 7.36284 4.49874C7.33336 4.85953 7.33337 5.30242 7.33337 5.83905V7.33329H5.21957C4.94501 6.5565 4.20419 5.99996 3.33337 5.99996C2.2288 5.99996 1.33337 6.89539 1.33337 7.99996C1.33337 9.10453 2.2288 9.99996 3.33337 9.99996C4.20419 9.99996 4.94501 9.44342 5.21957 8.66663H7.33337V10.1608C7.33337 10.6975 7.33336 11.1404 7.36284 11.5012C7.39345 11.8759 7.45916 12.2204 7.62402 12.5439C7.87969 13.0457 8.28763 13.4536 8.7894 13.7093C9.11296 13.8742 9.45743 13.9399 9.83216 13.9705C10.101 13.9925 10.4155 13.9981 10.7803 13.9995C11.0548 14.7765 11.7957 15.3333 12.6667 15.3333C13.7713 15.3333 14.6667 14.4379 14.6667 13.3333C14.6667 12.2287 13.7713 11.3333 12.6667 11.3333C11.7961 11.3333 11.0554 11.8896 10.7807 12.6661C10.4284 12.6646 10.1608 12.6596 9.94073 12.6416C9.64846 12.6177 9.49899 12.5744 9.39472 12.5213C9.14384 12.3935 8.93986 12.1895 8.81203 11.9386C8.75891 11.8343 8.71562 11.6849 8.69174 11.3926C8.66723 11.0925 8.66671 10.7043 8.66671 10.1333V8.66663H10.7805C11.0551 9.44342 11.7959 9.99996 12.6667 9.99996C13.7713 9.99996 14.6667 9.10453 14.6667 7.99996C14.6667 6.89539 13.7713 5.99996 12.6667 5.99996C11.7959 5.99996 11.0551 6.5565 10.7805 7.33329H8.66671V5.86663C8.66671 5.29557 8.66723 4.90738 8.69174 4.60732C8.71562 4.31504 8.75891 4.16557 8.81203 4.06131C8.93986 3.81042 9.14384 3.60645 9.39472 3.47862C9.49899 3.42549 9.64846 3.38221 9.94073 3.35833Z" fill="#6852D6"/>
</svg>
