<svg width="39" height="38" viewBox="0 0 39 38" fill="none" xmlns="http://www.w3.org/2000/svg">
<rect x="0.333374" width="38" height="38" rx="19" fill="#FF7129" fill-opacity="0.12"/>
<path d="M27.1667 19.645C27.1667 21.3625 26.2817 22.885 24.9167 23.845L23.9117 26.0575C23.6792 26.56 23.0042 26.6575 22.6517 26.23L21.5417 24.895C20.1467 24.895 18.8642 24.4225 17.8892 23.635L18.3392 23.1025C21.8042 22.84 24.5417 20.095 24.5417 16.75C24.5417 16.18 24.4592 15.6175 24.3092 15.0775C26.0117 15.9775 27.1667 17.6875 27.1667 19.645Z" fill="#FF7129"/>
<path d="M22.8917 14.5525C22.0142 12.7525 20.0567 11.5 17.7917 11.5C14.6867 11.5 12.1667 13.8475 12.1667 16.75C12.1667 18.4675 13.0517 19.99 14.4167 20.95L15.4217 23.1625C15.6542 23.665 16.3292 23.755 16.6817 23.335L17.0942 22.84L17.7917 22C20.8967 22 23.4167 19.6525 23.4167 16.75C23.4167 15.9625 23.2292 15.22 22.8917 14.5525ZM19.6667 17.3125H15.9167C15.6092 17.3125 15.3542 17.0575 15.3542 16.75C15.3542 16.4425 15.6092 16.1875 15.9167 16.1875H19.6667C19.9742 16.1875 20.2292 16.4425 20.2292 16.75C20.2292 17.0575 19.9742 17.3125 19.6667 17.3125Z" fill="#FF7129"/>
<rect x="14.4382" y="15.9036" width="7.71338" height="2.18384" fill="#FF7129"/>
<path fill-rule="evenodd" clip-rule="evenodd" d="M17.2643 20.0391C17.2771 20.3248 17.496 20.5664 17.7917 20.5664C18.0675 20.5664 18.3318 20.3239 18.319 20.0391C18.3062 19.7534 18.0873 19.5117 17.7917 19.5117C17.5158 19.5117 17.2516 19.7543 17.2643 20.0391ZM17.7917 12.804C16.6783 12.804 15.7725 13.7098 15.7725 14.8232C15.7725 15.1144 16.0086 15.3505 16.2998 15.3505C16.591 15.3505 16.8271 15.1144 16.8271 14.8232C16.8271 14.2913 17.2599 13.8586 17.7917 13.8586C18.3235 13.8586 18.7562 14.2913 18.7562 14.8232C18.7562 15.355 18.3235 15.7877 17.7917 15.7877C17.5004 15.7877 17.2643 16.0238 17.2643 16.315V18.0623C17.2643 18.3536 17.5004 18.5897 17.7917 18.5897C18.0829 18.5897 18.319 18.3536 18.319 18.0623V16.7725C19.1774 16.54 19.8109 15.7542 19.8109 14.8232C19.8109 13.7098 18.9051 12.804 17.7917 12.804Z" fill="#FFEEE5"/>
</svg>
