<svg width="16" height="16" viewBox="0 0 16 16" fill="none" xmlns="http://www.w3.org/2000/svg">
<path fill-rule="evenodd" clip-rule="evenodd" d="M8.74463 2.43337C8.47196 2.43337 8.21663 2.30004 8.06063 2.07671L7.74129 1.61871C7.39863 1.12671 6.83663 0.833374 6.23729 0.833374H3.99996C3.51396 0.833374 3.04729 1.02671 2.70329 1.37004C2.35996 1.71404 2.16663 2.18071 2.16663 2.66671V9.06671C2.16663 9.55271 2.35996 10.0194 2.70329 10.3634C3.04729 10.7067 3.51396 10.9 3.99996 10.9H12C13.0126 10.9 13.8333 10.0794 13.8333 9.06671C13.8333 7.71071 13.8333 5.62271 13.8333 4.26671C13.8333 3.25404 13.0126 2.43337 12 2.43337H8.74463Z" fill="#6852D6"/>
<path fill-rule="evenodd" clip-rule="evenodd" d="M9.5 12.6667C9.5 12.3907 9.276 12.1667 9 12.1667H7C6.724 12.1667 6.5 12.3907 6.5 12.6667V14.6667C6.5 14.9427 6.724 15.1667 7 15.1667H9C9.276 15.1667 9.5 14.9427 9.5 14.6667V12.6667Z" fill="#6852D6"/>
<path fill-rule="evenodd" clip-rule="evenodd" d="M7.5 10.4V12.6667C7.5 12.9427 7.724 13.1667 8 13.1667C8.276 13.1667 8.5 12.9427 8.5 12.6667V10.4C8.5 10.124 8.276 9.90002 8 9.90002C7.724 9.90002 7.5 10.124 7.5 10.4Z" fill="#6852D6"/>
<path fill-rule="evenodd" clip-rule="evenodd" d="M9 14.1667H13.3333C13.6093 14.1667 13.8333 13.9427 13.8333 13.6667C13.8333 13.3907 13.6093 13.1667 13.3333 13.1667H9C8.724 13.1667 8.5 13.3907 8.5 13.6667C8.5 13.9427 8.724 14.1667 9 14.1667Z" fill="#6852D6"/>
<path fill-rule="evenodd" clip-rule="evenodd" d="M2.66663 14.1667H6.99996C7.27596 14.1667 7.49996 13.9427 7.49996 13.6667C7.49996 13.3907 7.27596 13.1667 6.99996 13.1667H2.66663C2.39063 13.1667 2.16663 13.3907 2.16663 13.6667C2.16663 13.9427 2.39063 14.1667 2.66663 14.1667Z" fill="#6852D6"/>
</svg>
