<svg width="16" height="16" viewBox="0 0 16 16" fill="none" xmlns="http://www.w3.org/2000/svg">
<g opacity="0.84">
<path fill-rule="evenodd" clip-rule="evenodd" d="M8.0055 1.33325C4.31595 1.33325 1.33331 4.38879 1.33331 8.16892C1.33331 11.1906 3.24439 13.7483 5.89557 14.6536C6.22703 14.7217 6.34844 14.5065 6.34844 14.3256C6.34844 14.1671 6.33752 13.6239 6.33752 13.0579C4.48148 13.4654 4.09497 12.2431 4.09497 12.2431C3.7967 11.4508 3.35474 11.2472 3.35474 11.2472C2.74726 10.8285 3.39899 10.8285 3.39899 10.8285C4.07285 10.8738 4.42644 11.5302 4.42644 11.5302C5.02286 12.5713 5.98393 12.2771 6.37057 12.096C6.42575 11.6546 6.60261 11.349 6.7904 11.1793C5.31007 11.0209 3.75258 10.4324 3.75258 7.8067C3.75258 7.05976 4.01754 6.44865 4.43737 5.97337C4.37113 5.80365 4.13909 5.10185 4.50374 4.16255C4.50374 4.16255 5.06711 3.98144 6.33738 4.86421C6.88123 4.71458 7.44209 4.63846 8.0055 4.63782C8.56886 4.63782 9.14316 4.71713 9.67347 4.86421C10.9439 3.98144 11.5073 4.16255 11.5073 4.16255C11.8719 5.10185 11.6397 5.80365 11.5735 5.97337C12.0044 6.44865 12.2584 7.05976 12.2584 7.8067C12.2584 10.4324 10.7009 11.0095 9.20953 11.1793C9.45263 11.3943 9.66241 11.8017 9.66241 12.4468C9.66241 13.3635 9.65149 14.0992 9.65149 14.3254C9.65149 14.5065 9.77304 14.7217 10.1044 14.6538C12.7555 13.7482 14.6666 11.1906 14.6666 8.16892C14.6775 4.38879 11.684 1.33325 8.0055 1.33325Z" fill="#FAFAFF"/>
</g>
</svg>
