<svg width="16" height="16" viewBox="0 0 16 16" fill="none" xmlns="http://www.w3.org/2000/svg">
<path fill-rule="evenodd" clip-rule="evenodd" d="M7.99996 0.666626C3.94987 0.666626 0.666626 3.94987 0.666626 7.99996C0.666626 12.05 3.94987 15.3333 7.99996 15.3333C12.05 15.3333 15.3333 12.05 15.3333 7.99996C15.3333 3.94987 12.05 0.666626 7.99996 0.666626ZM7.27105 5.51411C7.54251 5.35457 7.86169 5.29625 8.17203 5.34948C8.48238 5.40271 8.76387 5.56406 8.96666 5.80495C9.16944 6.04584 9.28043 6.35073 9.27996 6.66561L9.27995 6.6666C9.27995 6.97936 9.03656 7.30541 8.57682 7.6119C8.36724 7.75162 8.15292 7.85926 7.98836 7.93239C7.90703 7.96854 7.84018 7.99523 7.79523 8.01236C7.77528 8.01996 7.75525 8.02731 7.73511 8.03438C7.38626 8.15108 7.19781 8.52835 7.31417 8.87742C7.4306 9.22671 7.80814 9.41549 8.15744 9.29906L8.26989 9.25834C8.33431 9.2338 8.42371 9.19799 8.52988 9.15081C8.74032 9.05728 9.026 8.91491 9.31642 8.7213C9.85658 8.36119 10.613 7.68744 10.6133 6.66721C10.6141 6.03759 10.3922 5.42797 9.98669 4.94628C9.58112 4.4645 9.01814 4.1418 8.39744 4.03534C7.77675 3.92887 7.13841 4.04551 6.59547 4.3646C6.05253 4.68369 5.64005 5.18463 5.43107 5.7787C5.30888 6.12603 5.4914 6.50664 5.83873 6.62882C6.18605 6.751 6.56666 6.56849 6.68885 6.22116C6.79334 5.92413 6.99958 5.67365 7.27105 5.51411ZM7.99996 10.6666C7.63176 10.6666 7.33329 10.9651 7.33329 11.3333C7.33329 11.7015 7.63176 11.9999 7.99996 11.9999H8.00662C8.37481 11.9999 8.67329 11.7015 8.67329 11.3333C8.67329 10.9651 8.37481 10.6666 8.00662 10.6666H7.99996Z" fill="#6852D6"/>
</svg>
