<svg width="16" height="16" viewBox="0 0 16 16" fill="none" xmlns="http://www.w3.org/2000/svg">
<g opacity="0.84">
<path d="M5.34938 1.64486C4.66841 1.67699 4.20339 1.78566 3.79686 1.9454C3.37612 2.10937 3.01951 2.3294 2.66469 2.6855C2.30988 3.0416 2.09138 3.39846 1.92856 3.81984C1.77099 4.22727 1.66424 4.69268 1.63416 5.37402C1.60408 6.05537 1.59743 6.27438 1.60075 8.01237C1.60408 9.75036 1.61176 9.96821 1.64479 10.651C1.6773 11.3318 1.78559 11.7967 1.94533 12.2034C2.10956 12.6241 2.32933 12.9806 2.68556 13.3355C3.04178 13.6905 3.39839 13.9085 3.82079 14.0715C4.22783 14.2288 4.69337 14.3361 5.37459 14.3659C6.05581 14.3958 6.27507 14.4027 8.01255 14.3993C9.75003 14.396 9.96878 14.3883 10.6514 14.3559C11.334 14.3236 11.7965 14.2145 12.2033 14.0555C12.624 13.8909 12.9808 13.6715 13.3355 13.3152C13.6901 12.9588 13.9085 12.6017 14.0712 12.1801C14.2289 11.773 14.336 11.3075 14.3656 10.6268C14.3954 9.94364 14.4025 9.72553 14.3991 7.98779C14.3958 6.25006 14.388 6.0322 14.3556 5.3497C14.3232 4.6672 14.2148 4.20371 14.0552 3.7968C13.8907 3.37606 13.6712 3.01984 13.3151 2.66464C12.959 2.30944 12.6016 2.0912 12.1801 1.92889C11.7728 1.77132 11.3075 1.66393 10.6263 1.63449C9.9451 1.60505 9.72584 1.5975 7.98772 1.60083C6.2496 1.60415 6.032 1.61158 5.34938 1.64486ZM5.42413 13.2146C4.80013 13.1874 4.46131 13.0837 4.23551 12.997C3.93651 12.8818 3.72351 12.7425 3.49849 12.5196C3.27346 12.2968 3.13522 12.083 3.01849 11.7847C2.93081 11.5589 2.82521 11.2204 2.79602 10.5964C2.76428 9.92201 2.75762 9.71951 2.75391 8.01083C2.7502 6.30215 2.75673 6.09991 2.78629 5.42522C2.81292 4.80173 2.91724 4.46253 3.00389 4.23687C3.1191 3.93747 3.25785 3.72487 3.48121 3.49997C3.70457 3.27507 3.91769 3.13657 4.21631 3.01984C4.44185 2.93177 4.78028 2.82707 5.40403 2.79737C6.07898 2.76537 6.28122 2.75897 7.98964 2.75526C9.69806 2.75155 9.90081 2.75795 10.576 2.78765C11.1995 2.81478 11.5388 2.91808 11.7642 3.00525C12.0634 3.12045 12.2762 3.25882 12.5011 3.48256C12.726 3.70631 12.8647 3.91866 12.9814 4.21792C13.0696 4.44282 13.1743 4.78112 13.2037 5.40526C13.2359 6.0802 13.2432 6.28257 13.2462 7.99086C13.2493 9.69916 13.2433 9.90204 13.2137 10.5765C13.1865 11.2005 13.083 11.5394 12.9961 11.7655C12.8809 12.0644 12.742 12.2775 12.5186 12.5022C12.2951 12.727 12.0822 12.8655 11.7834 12.9822C11.5582 13.0702 11.2193 13.1751 10.5961 13.2048C9.92117 13.2366 9.71893 13.2432 8.00986 13.2469C6.3008 13.2507 6.0992 13.2437 5.42425 13.2146M10.6416 4.57952C10.6418 4.73143 10.6871 4.87985 10.7717 5.00601C10.8563 5.13218 10.9764 5.23041 11.1169 5.2883C11.2573 5.34618 11.4118 5.36112 11.5607 5.33122C11.7097 5.30132 11.8464 5.22792 11.9536 5.12031C12.0608 5.01269 12.1337 4.8757 12.1631 4.72666C12.1924 4.57762 12.1769 4.42321 12.1185 4.28298C12.0601 4.14275 11.9615 4.02299 11.835 3.93884C11.7085 3.85469 11.5599 3.80994 11.408 3.81024C11.2044 3.81065 11.0092 3.89192 10.8655 4.03618C10.7218 4.18044 10.6412 4.37588 10.6416 4.57952ZM4.71385 8.00648C4.71744 9.82153 6.19149 11.2896 8.00615 11.2861C9.82081 11.2827 11.2899 9.80873 11.2864 7.99368C11.283 6.17863 9.80853 4.71021 7.99361 4.7138C6.17869 4.71738 4.7104 6.19169 4.71385 8.00648ZM5.86662 8.00418C5.86579 7.58223 5.99009 7.16952 6.22382 6.81822C6.45754 6.46693 6.79019 6.19283 7.17969 6.03059C7.5692 5.86834 7.99806 5.82525 8.41206 5.90675C8.82606 5.98824 9.20659 6.19067 9.50554 6.48844C9.80449 6.78621 10.0084 7.16594 10.0916 7.57961C10.1747 7.99328 10.1333 8.42232 9.97261 8.81246C9.81191 9.2026 9.53913 9.53633 9.18876 9.77145C8.83839 10.0066 8.42617 10.1325 8.00423 10.1333C7.72406 10.1339 7.44652 10.0793 7.18746 9.97263C6.9284 9.86594 6.69289 9.70926 6.49439 9.51155C6.29589 9.31383 6.13828 9.07894 6.03057 8.82031C5.92285 8.56167 5.86715 8.28435 5.86662 8.00418Z" fill="#FAFAFF"/>
</g>
</svg>
