<svg width="16" height="16" viewBox="0 0 16 16" fill="none" xmlns="http://www.w3.org/2000/svg">
<path d="M10.2615 12.8986V13.8407C10.2615 14.5642 9.66605 15.1597 8.94249 15.1597H7.05824C6.42513 15.1597 5.73926 14.6773 5.73926 13.6221V12.8986H10.2615Z" fill="#6852D6"/>
<path d="M11.3243 2.01507C10.0883 1.01265 8.46028 0.620725 6.86997 0.959891C4.87265 1.37443 3.25219 3.00242 2.83766 4.99974C2.41558 7.04981 3.18436 9.0848 4.82743 10.3284C5.27212 10.66 5.58113 11.1726 5.68665 11.768V11.7755C5.70173 11.768 5.72434 11.768 5.73941 11.768H10.2616C10.2767 11.768 10.2842 11.768 10.2993 11.7755V11.768C10.4048 11.1952 10.744 10.6676 11.2641 10.2606C12.5378 9.25062 13.2764 7.74321 13.2764 6.11522C13.2764 4.51737 12.568 3.02504 11.3243 2.01507ZM10.8269 6.49207C10.5179 6.49207 10.2616 6.23581 10.2616 5.92679C10.2616 4.78116 9.33457 3.85411 8.18895 3.85411C7.87993 3.85411 7.62367 3.59785 7.62367 3.28883C7.62367 2.97981 7.87993 2.72355 8.18895 2.72355C9.95261 2.72355 11.3922 4.16313 11.3922 5.92679C11.3922 6.23581 11.1359 6.49207 10.8269 6.49207Z" fill="#6852D6"/>
<path d="M5.95374 12.1597H6.0004C5.98707 12.1597 5.96707 12.1597 5.95374 12.1663V12.1597Z" fill="#6852D6"/>
<path d="M10.0337 12.1597V12.1663C10.0204 12.1597 10.0137 12.1597 10.0004 12.1597H10.0337Z" fill="#6852D6"/>
</svg>
