<svg width="24" height="24" viewBox="0 0 24 24" fill="none" xmlns="http://www.w3.org/2000/svg">
<path d="M8.38989 18.4902V8.33022C8.38989 7.93022 8.50989 7.54022 8.72989 7.21022L11.4599 3.15022C11.8899 2.50022 12.9599 2.04022 13.8699 2.38022C14.8499 2.71022 15.4999 3.81022 15.2899 4.79022L14.7699 8.06022C14.7299 8.36022 14.8099 8.63022 14.9799 8.84022C15.1499 9.03022 15.3999 9.15022 15.6699 9.15022H19.7799C20.5699 9.15022 21.2499 9.47022 21.6499 10.0302C22.0299 10.5702 22.0999 11.2702 21.8499 11.9802L19.3899 19.4702C19.0799 20.7102 17.7299 21.7202 16.3899 21.7202H12.4899C11.8199 21.7202 10.8799 21.4902 10.4499 21.0602L9.16989 20.0702C8.67989 19.7002 8.38989 19.1102 8.38989 18.4902Z" fill="white"/>
<path d="M5.21 6.37988H4.18C2.63 6.37988 2 6.97988 2 8.45988V18.5199C2 19.9999 2.63 20.5999 4.18 20.5999H5.21C6.76 20.5999 7.39 19.9999 7.39 18.5199V8.45988C7.39 6.97988 6.76 6.37988 5.21 6.37988Z" fill="white"/>
</svg>
