<svg width="16" height="16" viewBox="0 0 16 16" fill="none" xmlns="http://www.w3.org/2000/svg">
<path fill-rule="evenodd" clip-rule="evenodd" d="M7.52855 0.861888C7.7889 0.601539 8.21101 0.601539 8.47136 0.861888L10.2177 2.60826L10.4664 2.4304C11.3512 1.79742 12.564 1.89735 13.3333 2.66663C14.1026 3.4359 14.2025 4.64874 13.5695 5.53356L13.3917 5.78218L15.138 7.52855C15.3984 7.7889 15.3984 8.21101 15.138 8.47136L12.738 10.8714C12.5782 11.0312 12.3482 11.0992 12.1272 11.0519C11.9061 11.0046 11.7241 10.8485 11.6436 10.6373C11.2921 9.71459 10.8452 9.41711 10.5452 9.34089C10.2333 9.26166 9.88937 9.37002 9.6297 9.6297C9.37002 9.88937 9.26166 10.2333 9.34089 10.5452C9.41711 10.8452 9.71459 11.2921 10.6373 11.6436C10.8485 11.7241 11.0046 11.9061 11.0519 12.1272C11.0992 12.3482 11.0312 12.5782 10.8714 12.738L8.47136 15.138C8.21101 15.3984 7.7889 15.3984 7.52855 15.138L5.78218 13.3917L5.53356 13.5695C4.64874 14.2025 3.4359 14.1026 2.66663 13.3333C1.89735 12.564 1.79742 11.3512 2.4304 10.4664L2.60826 10.2177L0.861888 8.47136C0.601539 8.21101 0.601539 7.7889 0.861888 7.52855L3.26189 5.12855C3.42173 4.96871 3.65168 4.90076 3.87273 4.94804C4.09378 4.99532 4.27581 5.15139 4.35628 5.36263C4.70779 6.28532 5.15474 6.58281 5.45474 6.65903C5.76662 6.73826 6.11055 6.62989 6.37022 6.37022C6.62989 6.11055 6.73826 5.76662 6.65903 5.45474C6.58281 5.15474 6.28532 4.70779 5.36263 4.35628C5.15139 4.27581 4.99532 4.09378 4.94804 3.87273C4.90076 3.65168 4.96871 3.42173 5.12855 3.26189L7.52855 0.861888Z" fill="#6852D6"/>
</svg>
