<svg width="38" height="38" viewBox="0 0 38 38" fill="none" xmlns="http://www.w3.org/2000/svg">
<rect width="38" height="38" rx="19" fill="#FF7129" fill-opacity="0.12"/>
<g clip-path="url(#clip0_106_4829)">
<path d="M24.835 13.1651C23.439 11.7713 21.5899 10.924 19.6228 10.7765C17.6557 10.6291 15.7009 11.1913 14.1127 12.3613C12.5246 13.5314 11.4082 15.2317 10.9661 17.1541C10.5239 19.0765 10.7851 21.0937 11.7025 22.8401L11.11 25.0526C11.0423 25.3068 11.0427 25.5744 11.1112 25.8285C11.1797 26.0826 11.3137 26.3142 11.5 26.5001C11.6859 26.6863 11.9175 26.8204 12.1715 26.8889C12.4256 26.9573 12.6932 26.9577 12.9475 26.8901L15.16 26.2976C16.3426 26.925 17.6613 27.2521 19 27.2501C19.4166 27.2499 19.8327 27.2199 20.245 27.1601C21.7542 26.9308 23.1703 26.2874 24.3356 25.3013C25.5008 24.3152 26.3697 23.0251 26.8454 21.5746C27.3211 20.1241 27.3851 18.5701 27.0302 17.0854C26.6752 15.6007 25.9153 14.2436 24.835 13.1651ZM19 24.2501C18.7775 24.2501 18.56 24.1841 18.375 24.0605C18.19 23.9368 18.0458 23.7611 17.9606 23.5556C17.8755 23.35 17.8532 23.1238 17.8966 22.9056C17.94 22.6874 18.0472 22.4869 18.2045 22.3296C18.3618 22.1722 18.5623 22.0651 18.7805 22.0217C18.9988 21.9783 19.225 22.0005 19.4305 22.0857C19.6361 22.1708 19.8118 22.315 19.9354 22.5C20.059 22.685 20.125 22.9026 20.125 23.1251C20.125 23.4234 20.0065 23.7096 19.7955 23.9206C19.5845 24.1315 19.2984 24.2501 19 24.2501ZM20.2975 18.6101C20.1385 18.6609 19.9999 18.761 19.9014 18.8958C19.803 19.0306 19.75 19.1932 19.75 19.3601V19.7501C19.75 19.949 19.671 20.1397 19.5303 20.2804C19.3897 20.421 19.1989 20.5001 19 20.5001C18.8011 20.5001 18.6103 20.421 18.4697 20.2804C18.329 20.1397 18.25 19.949 18.25 19.7501V19.3676C18.2493 18.8843 18.4012 18.4131 18.684 18.0212C18.9668 17.6293 19.3661 17.3367 19.825 17.1851C20.0436 17.1058 20.2276 16.9528 20.3453 16.7523C20.463 16.5518 20.507 16.3164 20.4697 16.087C20.4323 15.8575 20.316 15.6483 20.1407 15.4955C19.9655 15.3427 19.7424 15.2559 19.51 15.2501H18.49C18.2274 15.2501 17.9756 15.3544 17.79 15.54C17.6043 15.7257 17.5 15.9775 17.5 16.2401V16.7501C17.5 16.949 17.421 17.1397 17.2803 17.2804C17.1397 17.421 16.9489 17.5001 16.75 17.5001C16.5511 17.5001 16.3603 17.421 16.2197 17.2804C16.079 17.1397 16 16.949 16 16.7501V16.2401C16 15.9131 16.0644 15.5893 16.1895 15.2872C16.3147 14.9851 16.4981 14.7106 16.7293 14.4794C17.1963 14.0124 17.8296 13.7501 18.49 13.7501H19.51C20.0993 13.7553 20.6677 13.9688 21.1148 14.3527C21.5619 14.7366 21.8589 15.2663 21.9531 15.848C22.0474 16.4297 21.9329 17.026 21.6299 17.5315C21.3269 18.037 20.855 18.419 20.2975 18.6101Z" fill="#FF7129"/>
</g>
<defs>
<clipPath id="clip0_106_4829">
<rect width="18" height="18" fill="white" transform="translate(10 10)"/>
</clipPath>
</defs>
</svg>
