<svg width="39" height="38" viewBox="0 0 39 38" fill="none" xmlns="http://www.w3.org/2000/svg">
<rect x="0.333374" width="38" height="38" rx="19" fill="#FF7129" fill-opacity="0.12"/>
<g clip-path="url(#clip0_106_4839)">
<path d="M28.0438 19.6553C28.0716 20.3199 27.8347 20.9684 27.385 21.4584C26.9353 21.9485 26.3096 22.2402 25.6451 22.2696C25.6063 22.2714 25.5675 22.2723 25.5288 22.2723C25.3522 22.2721 25.1762 22.253 25.0037 22.2153C24.492 23.0054 23.8209 23.68 23.0335 24.196C22.2462 24.7119 21.3598 25.0579 20.431 25.2116C20.3212 25.5344 20.102 25.8086 19.8115 25.9868C19.5209 26.1651 19.1772 26.2362 18.8397 26.188C18.5023 26.1397 18.1923 25.975 17.9633 25.7225C17.7344 25.4699 17.6009 25.1452 17.5859 24.8047C17.571 24.4641 17.6754 24.129 17.8813 23.8573C18.0872 23.5856 18.3816 23.3944 18.7135 23.3167C19.0454 23.239 19.3941 23.2797 19.6991 23.4318C20.0042 23.5839 20.2466 23.8378 20.3843 24.1496C21.6919 23.9078 22.8731 23.2148 23.7221 22.1915C24.5711 21.1681 25.0341 19.8793 25.0304 18.5496C25.0304 15.4082 22.4747 12.8525 19.3333 12.8525C16.192 12.8525 13.6363 15.4082 13.6363 18.5496C13.6361 19.521 13.8844 20.4763 14.3574 21.3246C14.3735 21.3526 14.3855 21.3827 14.3932 21.4141C14.4389 21.5411 14.434 21.6808 14.3795 21.8043C14.3251 21.9278 14.2252 22.0256 14.1007 22.0776C13.7956 22.206 13.4679 22.2721 13.137 22.272C13.098 22.272 13.059 22.2711 13.0198 22.2693C12.3556 22.2396 11.7303 21.9477 11.281 21.4577C10.8316 20.9676 10.595 20.3194 10.6229 19.6551C10.6341 19.3902 10.6278 19.1538 10.6217 18.9253C10.616 18.7101 10.6101 18.4876 10.6198 18.2554C10.649 17.6067 10.928 16.9946 11.3984 16.5471C11.8688 16.0996 12.4942 15.8514 13.1434 15.8546C14.186 13.4692 16.568 11.7979 19.3333 11.7979C22.0987 11.7979 24.4807 13.4692 25.5233 15.8547C26.1726 15.851 26.7982 16.0989 27.2687 16.5464C27.7391 16.9939 28.018 17.6063 28.0468 18.255C28.0566 18.4875 28.0507 18.71 28.045 18.9252C28.0389 19.1538 28.0326 19.3903 28.0438 19.6553ZM23.7562 18.5496C23.7559 19.2272 23.6 19.8957 23.3006 20.5035C23.0011 21.1113 22.566 21.6422 22.0289 22.0553C21.4918 22.4683 20.867 22.7525 20.2027 22.8859C19.5383 23.0193 18.8522 22.9983 18.1973 22.8246L16.4071 23.8584C16.3168 23.9106 16.213 23.9348 16.1089 23.928C16.0049 23.9212 15.9051 23.8837 15.8224 23.8202C15.7396 23.7567 15.6776 23.6701 15.644 23.5713C15.6105 23.4725 15.607 23.366 15.634 23.2653L16.0916 21.5585C15.3339 20.7395 14.9123 19.6653 14.9107 18.5496C14.9107 16.1102 16.8946 14.1258 19.3333 14.1258C21.7721 14.1258 23.7562 16.1102 23.7562 18.5496ZM18.1038 18.5496C18.1038 18.4097 18.0482 18.2756 17.9493 18.1767C17.8504 18.0778 17.7163 18.0223 17.5764 18.0223H17.5755C17.4713 18.0225 17.3694 18.0536 17.2828 18.1116C17.1962 18.1697 17.1288 18.2521 17.089 18.3485C17.0493 18.4449 17.039 18.5509 17.0594 18.6531C17.0799 18.7553 17.1302 18.8492 17.204 18.9228C17.2778 18.9965 17.3717 19.0466 17.474 19.0669C17.5763 19.0872 17.6822 19.0767 17.7786 19.0367C17.8749 18.9968 17.9572 18.9292 18.0151 18.8425C18.073 18.7558 18.1039 18.6539 18.1039 18.5496H18.1038ZM19.8608 18.5496C19.8608 18.5323 19.8598 18.5151 19.858 18.4979C19.8563 18.4807 19.8538 18.4636 19.8503 18.4466C19.8471 18.4297 19.8429 18.413 19.8376 18.3967C19.8327 18.3802 19.8267 18.364 19.8204 18.3478C19.8141 18.3316 19.8063 18.3165 19.7983 18.3014C19.7902 18.2862 19.7814 18.2714 19.7719 18.2571C19.7623 18.2427 19.7519 18.2287 19.7409 18.2153C19.7301 18.2018 19.7185 18.189 19.7061 18.177C19.6942 18.1646 19.6812 18.153 19.6678 18.1418C19.6544 18.1312 19.6404 18.1207 19.626 18.1112C19.6117 18.1017 19.5969 18.0929 19.5817 18.0848C19.5665 18.0768 19.5508 18.0694 19.5349 18.0627C19.5191 18.0561 19.5029 18.0503 19.4864 18.0455C19.4535 18.0349 19.4196 18.0281 19.3852 18.0251C19.3335 18.0201 19.2814 18.0226 19.2305 18.0325C19.2135 18.0359 19.1968 18.0403 19.1802 18.0455C19.1638 18.0503 19.1476 18.0561 19.1317 18.0627C19.1159 18.0694 19.1001 18.0768 19.085 18.0848C19.0699 18.0929 19.0551 18.1017 19.0406 18.1112C19.0262 18.1207 19.0122 18.1312 18.9992 18.1418C18.9855 18.153 18.9728 18.1646 18.9605 18.177C18.9482 18.189 18.9365 18.2018 18.9257 18.2153C18.9148 18.2287 18.9046 18.2427 18.8951 18.2571C18.8855 18.2714 18.8765 18.2862 18.8684 18.3014C18.8603 18.3165 18.853 18.332 18.8466 18.3478C18.8399 18.3638 18.834 18.3801 18.829 18.3967C18.8241 18.4129 18.8199 18.4297 18.8164 18.4466C18.8129 18.4636 18.8103 18.4807 18.8086 18.4979C18.8069 18.5152 18.8061 18.5324 18.8061 18.5496C18.8061 18.5668 18.8069 18.5844 18.8086 18.6016C18.8103 18.6188 18.8129 18.6358 18.8164 18.6526C18.8199 18.6695 18.8241 18.6864 18.829 18.7029C18.834 18.7193 18.8399 18.7355 18.8466 18.7514C18.853 18.7674 18.8603 18.783 18.8684 18.7982C18.8765 18.8133 18.8856 18.828 18.8951 18.8425C18.9046 18.8568 18.9148 18.8706 18.9257 18.8839C18.9366 18.8974 18.9483 18.9103 18.9605 18.9226C18.9728 18.9346 18.9855 18.9465 18.9992 18.9574C19.0124 18.9684 19.0262 18.9786 19.0406 18.988C19.0551 18.9975 19.0698 19.0066 19.085 19.0147C19.1155 19.0306 19.1474 19.0438 19.1802 19.0541C19.1967 19.059 19.2136 19.0632 19.2305 19.0668C19.2644 19.0737 19.2989 19.0771 19.3335 19.077C19.4732 19.0766 19.6071 19.0211 19.7061 18.9226C19.7304 18.8979 19.7524 18.8711 19.7719 18.8425C19.7814 18.828 19.7902 18.8133 19.7983 18.7982C19.8063 18.783 19.8137 18.7672 19.8204 18.7514C19.8271 18.7356 19.8327 18.7191 19.8376 18.7029C19.8429 18.6864 19.8471 18.6696 19.8503 18.6526C19.8537 18.6358 19.8563 18.6188 19.858 18.6016C19.8598 18.5843 19.8607 18.5669 19.8607 18.5495L19.8608 18.5496ZM21.6186 18.5496C21.6186 18.4097 21.563 18.2756 21.4642 18.1767C21.3653 18.0778 21.2311 18.0223 21.0913 18.0223H21.0902C20.986 18.0225 20.8841 18.0536 20.7975 18.1116C20.711 18.1697 20.6435 18.2521 20.6038 18.3485C20.564 18.4449 20.5537 18.5509 20.5742 18.6531C20.5946 18.7553 20.6449 18.8492 20.7187 18.9229C20.7925 18.9965 20.8865 19.0466 20.9888 19.0669C21.091 19.0872 21.197 19.0767 21.2933 19.0367C21.3896 18.9968 21.4719 18.9292 21.5298 18.8425C21.5877 18.7558 21.6186 18.6539 21.6186 18.5496Z" fill="#FF7129"/>
</g>
<defs>
<clipPath id="clip0_106_4839">
<rect width="18" height="18" fill="white" transform="translate(10.3334 10)"/>
</clipPath>
</defs>
</svg>
