<svg width="16" height="16" viewBox="0 0 16 16" fill="none" xmlns="http://www.w3.org/2000/svg">
<path fill-rule="evenodd" clip-rule="evenodd" d="M11.8924 1.33337H4.10768C3.75626 1.33336 3.45307 1.33335 3.20336 1.35376C2.93979 1.37529 2.67765 1.42283 2.42539 1.55136C2.04907 1.74311 1.74311 2.04907 1.55136 2.42539C1.42283 2.67765 1.37529 2.93979 1.35376 3.20336C1.33335 3.45307 1.33336 3.75623 1.33337 4.10765V11.8924C1.33336 12.2438 1.33335 12.547 1.35376 12.7967C1.37529 13.0603 1.42283 13.3224 1.55136 13.5747C1.74311 13.951 2.04907 14.257 2.42539 14.4487C2.67765 14.5773 2.93979 14.6248 3.20336 14.6463C3.45307 14.6667 3.75624 14.6667 4.10766 14.6667H11.8924C12.2438 14.6667 12.547 14.6667 12.7967 14.6463C13.0603 14.6248 13.3224 14.5773 13.5747 14.4487C13.951 14.257 14.257 13.951 14.4487 13.5747C14.5773 13.3224 14.6248 13.0603 14.6463 12.7967C14.6667 12.547 14.6667 12.2438 14.6667 11.8924V4.10766C14.6667 3.75624 14.6667 3.45307 14.6463 3.20336C14.6248 2.93979 14.5773 2.67765 14.4487 2.42539C14.257 2.04907 13.951 1.74311 13.5747 1.55136C13.3224 1.42283 13.0603 1.37529 12.7967 1.35376C12.547 1.33335 12.2438 1.33336 11.8924 1.33337ZM5.13811 5.52864C4.87776 5.26829 4.45565 5.26829 4.1953 5.52864C3.93495 5.78899 3.93495 6.2111 4.1953 6.47145L5.7239 8.00004L4.1953 9.52864C3.93495 9.78899 3.93495 10.2111 4.1953 10.4714C4.45565 10.7318 4.87776 10.7318 5.13811 10.4714L7.13811 8.47145C7.39846 8.2111 7.39846 7.78899 7.13811 7.52864L5.13811 5.52864ZM8.66671 9.33337C8.29852 9.33337 8.00004 9.63185 8.00004 10C8.00004 10.3682 8.29852 10.6667 8.66671 10.6667H11.3334C11.7016 10.6667 12 10.3682 12 10C12 9.63185 11.7016 9.33338 11.3334 9.33337H8.66671Z" fill="#6852D6"/>
</svg>
