<svg width="30" height="30" viewBox="0 0 30 30" fill="none" xmlns="http://www.w3.org/2000/svg">
<g filter="url(#filter0_b_70_4900)">
<rect width="30" height="30" rx="15" fill="#F5F5FA"/>
<path fill-rule="evenodd" clip-rule="evenodd" d="M13.547 10.625C13.3546 10.625 12.4908 10.6291 11.539 10.6339C10.5868 10.6387 10.1107 10.6411 9.68555 10.8593C9.33213 11.0407 8.99698 11.3769 8.81666 11.7308C8.59973 12.1566 8.59874 12.627 8.59678 13.5677C8.59479 14.5161 8.59478 15.3734 8.59478 15.5605C8.59478 15.685 8.59273 16.0189 8.59038 16.4408C8.58515 17.3775 8.58253 17.8458 8.79964 18.276C8.97927 18.632 9.31927 18.9739 9.67423 19.1555C10.1033 19.375 10.5786 19.375 11.5293 19.375C12.4863 19.375 13.3545 19.375 13.547 19.375H14.9567C15.9133 19.375 16.3917 19.375 16.8192 19.1573C17.1745 18.9765 17.5118 18.6396 17.6931 18.2845C17.9113 17.8573 17.9119 17.3848 17.9131 16.44C17.9137 15.9305 17.9136 15.5578 17.9136 15.5471C17.9136 15.5468 17.9136 15.5475 17.9136 15.5473C17.9136 15.547 17.9136 15.5468 17.9136 15.5465C17.9136 15.5462 17.9136 15.5459 17.9136 15.5453L17.9146 13.827C17.9153 12.7062 17.9157 12.1459 17.6978 11.7178C17.5061 11.3412 17.2001 11.035 16.8237 10.8432C16.3957 10.625 15.8354 10.625 14.7146 10.625H13.547Z" fill="#7B7A80"/>
<path d="M18.5 13.25L19.792 12.2164C20.4467 11.6926 21.4167 12.1588 21.4167 12.9973V17.0027C21.4167 17.8412 20.4467 18.3074 19.792 17.7836L18.5 16.75V13.25Z" fill="#7B7A80"/>
</g>
<defs>
<filter id="filter0_b_70_4900" x="-4" y="-4" width="38" height="38" filterUnits="userSpaceOnUse" color-interpolation-filters="sRGB">
<feFlood flood-opacity="0" result="BackgroundImageFix"/>
<feGaussianBlur in="BackgroundImageFix" stdDeviation="2"/>
<feComposite in2="SourceAlpha" operator="in" result="effect1_backgroundBlur_70_4900"/>
<feBlend mode="normal" in="SourceGraphic" in2="effect1_backgroundBlur_70_4900" result="shape"/>
</filter>
</defs>
</svg>
